<svg version="1.0" xmlns="http://www.w3.org/2000/svg" width="1329.333" height="317.333" viewBox="0 0 997 238"><g fill="#c42218"><path d="M105.6 1.1c-45 5.2-84.3 36.8-98.5 79.4-8.1 24.3-8.2 52.8-.2 75.8 11.7 33.7 35.4 59.2 67.2 72.2 15.8 6.4 27.6 8.6 45.9 8.6 81 0 137.6-80 111.3-157.1-17.7-52-70.8-85.3-125.7-78.9zM127.7 46c4.4 8.8 7.7 14.4 8.5 14.2.7-.2 4.8-1.6 9-3.3 4.3-1.6 8-2.9 8.3-2.9 1 0 .5 4.8-2.5 23.6-3.2 20.3-3.7 28.4-1.8 28.4 1.4 0 5.2-2.9 16.8-12.9 5.1-4.5 9.8-8 10.4-7.8.7.2 1.2 4.1 1.4 9.5.2 6.4.6 9.2 1.5 9.2.7 0 3.7-.7 6.7-1.5 13.3-3.7 18-3.9 18-.9 0 2-3.4 8.6-8.6 16.7-2.4 3.7-4.4 7.4-4.4 8.1 0 1.3 4.1 2.6 8.1 2.6 1 0 3 .5 4.5 1 2.6 1 2.6 1.1.8 3.1-1.9 2.1-22.7 15.3-31.9 20.3-2.8 1.5-6.4 3.7-8 5l-2.9 2.3 6.4 6.7c4.4 4.6 6 7 5.3 7.7-.7.7-4.9.4-13.6-1-7-1.2-17.9-2.4-24.2-2.7l-11.5-.7v15.4c0 10.7-.4 15.9-1.2 16.7-1.9 1.9-6.6 1.5-7.8-.7-.5-1.1-1-8.5-1-16.7v-14.7l-11.7.7c-6.4.3-17.3 1.6-24.1 2.7-16 2.7-16.8 2.1-8.4-6.4 3.4-3.4 6.2-6.7 6.2-7.2 0-.6-3.1-2.8-6.8-4.9-29-17.1-36.2-21.9-36.2-24.1 0-1.3 1.5-1.8 9.8-3 2.8-.5 4.2-1.2 4.2-2.2 0-.8-2-4.6-4.5-8.4-8.3-12.8-9.9-17.1-6.9-18.3 1.7-.7 3.3-.4 14.7 2.5 10.6 2.7 11 2.5 10.2-5.6-.7-6.6-.1-11.5 1.4-11.5.4 0 5 3.6 10.2 8.1 11.5 10 15.3 12.9 16.7 12.9 1.9 0 1.4-7.5-1.8-29.2-1.7-11.1-2.8-20.8-2.6-21.5.5-1.3 2-.9 13.4 3.6l5.3 2.1 5.5-11.7c6.5-14 9.2-18.5 10.8-18.1.6.2 4.3 6.9 8.3 14.8zM514 104.5V144h16V65h-16v39.5zM544 104.5V144h16V65h-16v39.5zM940 104.5V144h16v-9c0-5 .3-9 .8-9 .4 0 4.8 4 9.7 9l9 9h21L984 131.5 971.5 119l11-11 11-11h-20l-8 8c-4.4 4.4-8.3 8-8.7 8-.5 0-.8-10.8-.8-24V65h-16v39.5zM660.6 68.1c-10.8 2.6-21.8 11.5-27.3 22-2.5 4.9-2.8 6.3-2.8 15.9 0 12.4 1.6 16.7 9.6 25.5 9.2 10 19.6 14.1 33.8 13.2 8.1-.4 19.3-3.6 20.6-5.7.3-.5-1-4.1-3-7.9l-3.5-7-4.6 2.1c-9.3 4.1-22.7 1.8-29-4.9-10.4-11-7.5-28.1 5.9-34.8 6.5-3.2 17-3.5 23.5-.5l4.2 1.9 3.6-7c3.3-6.7 3.4-7.2 1.7-8.5-5.2-4-24-6.5-32.7-4.3zM303.7 68.7c-.4.3-.7 17.4-.7 38V144h16.9l.3-15.3.3-15.2 12.3-.3 12.2-.3V99.1l-12.2-.3-12.3-.3v-15l13.3-.3 13.2-.3V68h-21.3c-11.8 0-21.7.3-22 .7zM359.5 70.2c-1.5 1.4-2.8 3.8-3.2 6-.5 3.3-.2 4.1 3 7.3 1.9 1.9 4.5 3.5 5.6 3.5 3 0 7.8-2.6 9.1-4.9 4.8-9-6.8-18.5-14.5-11.9zM409.5 97.6c-1.6.8-3.8 2.3-4.7 3.1-1.7 1.5-1.8 1.4-1.8-1 0-2.7 0-2.7-8-2.7h-8v47h16v-29.2l3.4-3.4c3.6-3.6 7-4.3 10.8-2.3 3.7 2 4.8 6.9 4.8 21.4V144h16v-15.3c-.1-21.9-1.4-26.1-10-30.5-5.3-2.6-14-3-18.5-.6zM461.2 97c-4.6 1.9-9.2 6.3-11.7 11.3-3.2 6.5-3.5 17-.6 23.2 3.8 8.2 12 13.5 20.8 13.5 4.8 0 12.4-2.8 13.7-4.9 1.2-1.9 2.6-1.2 2.6 1.4 0 2.4.2 2.5 7.5 2.5h7.5V97h-8c-7.3 0-8 .2-8 1.9 0 1.9-.2 1.9-4.2-.4-3.4-2-5.7-2.5-10.8-2.4-3.6 0-7.5.4-8.8.9zm18.4 13.5c3.4 1.4 6.4 6.1 6.4 10.1 0 3.4-3.2 8.3-6.6 9.9-11 5.2-20.9-8.6-12.7-17.8 3.5-3.8 7.5-4.5 12.9-2.2zM715.2 97c-4.6 1.9-9.2 6.3-11.7 11.3-3.2 6.5-3.5 17-.6 23.2 3.8 8.2 12 13.5 20.8 13.5 4.8 0 12.4-2.8 13.7-4.9 1.2-1.9 2.6-1.2 2.6 1.4 0 2.4.2 2.5 7.5 2.5h7.5V97h-8c-7.3 0-8 .2-8 1.9 0 1.9-.2 1.9-4.2-.4-3.4-2-5.7-2.5-10.8-2.4-3.6 0-7.5.4-8.8.9zm18.4 13.5c3.4 1.4 6.4 6.1 6.4 10.1 0 3.4-3.2 8.3-6.6 9.9-11 5.2-20.9-8.6-12.7-17.8 3.5-3.8 7.5-4.5 12.9-2.2zM789.6 98.5c-4.4 3-4.6 3-4.6.5 0-1.8-.7-2-8-2h-8v47h16v-30.2l2.9-2.9c2-2 3.9-2.9 6.1-2.9 2.2 0 4.1.9 6.1 2.9l2.9 2.9V144h16v-17.5c0-15.8-.2-18-2.1-21.6-4.1-8.2-19.4-11.8-27.3-6.4zM903.9 98.8c-23.7 12.4-14.5 46.2 12.6 46.2 5.4 0 14.5-2.6 14.5-4.1 0-.5-1-2.9-2.2-5.4l-2.2-4.5-5.1.6c-11.2 1.3-18.1-8.2-12.5-17.3 2.7-4.5 5.4-5.6 12-5l5.8.5 2.3-4.9c1.3-3 1.9-5.3 1.3-5.8-2-1.8-8-3.1-14.4-3.1-5.5 0-7.8.5-12.1 2.8zM357 120.5V144h16V97h-16v23.5zM567.9 100.7c1.1 2.1 6 11 11 19.8l9 16-8 15.4c-4.3 8.5-7.9 15.6-7.9 15.8 0 .2 4.1.2 9.1.1l9.2-.3 9.1-17.5c5-9.6 13.3-25.5 18.4-35.3l9.3-17.7h-18.6l-5.4 12c-3 6.6-5.7 11.8-5.9 11.5-.3-.3-3.3-5.6-6.7-11.8l-6.2-11.2-9.2-.3-9.2-.3 2 3.8zM831 114c0 15 .2 17.5 2 21 3.9 7.6 11.5 10.5 25.8 9.8 11.2-.5 16.6-3.2 20-9.8 2-4.1 2.2-5.8 2.2-21.2V97h-16v15c0 14.7-.1 15.2-2.5 17.5-1.7 1.8-3.5 2.5-6.3 2.5-8.2 0-10.1-4.5-10.2-23.8V97h-15v17z"/></g></svg>