<?xml version="1.0" standalone="no"?>
<!DOCTYPE svg PUBLIC "-//W3C//DTD SVG 20010904//EN"
 "http://www.w3.org/TR/2001/REC-SVG-20010904/DTD/svg10.dtd">
<svg version="1.0" xmlns="http://www.w3.org/2000/svg"
 width="997.000000pt" height="238.000000pt" viewBox="0 0 997.000000 238.000000"
 preserveAspectRatio="xMidYMid meet">

<g transform="translate(0.000000,238.000000) scale(0.100000,-0.100000)"
fill="#c42218" stroke="none">
<path d="M1056 2369 c-450 -52 -843 -368 -985 -794 -81 -243 -82 -528 -2 -758
117 -337 354 -592 672 -722 158 -64 276 -86 459 -86 810 0 1376 800 1113 1571
-177 520 -708 853 -1257 789z m221 -449 c44 -88 77 -144 85 -142 7 2 48 16 90
33 43 16 80 29 83 29 10 0 5 -48 -25 -236 -32 -203 -37 -284 -18 -284 14 0 52
29 168 129 51 45 98 80 104 78 7 -2 12 -41 14 -95 2 -64 6 -92 15 -92 7 0 37
7 67 15 133 37 180 39 180 9 0 -20 -34 -86 -86 -167 -24 -37 -44 -74 -44 -81
0 -13 41 -26 81 -26 10 0 30 -5 45 -10 26 -10 26 -11 8 -31 -19 -21 -227 -153
-319 -203 -28 -15 -64 -37 -80 -50 l-29 -23 64 -67 c44 -46 60 -70 53 -77 -7
-7 -49 -4 -136 10 -70 12 -179 24 -242 27 l-115 7 0 -154 c0 -107 -4 -159 -12
-167 -19 -19 -66 -15 -78 7 -5 11 -10 85 -10 167 l0 147 -117 -7 c-64 -3 -173
-16 -241 -27 -160 -27 -168 -21 -84 64 34 34 62 67 62 72 0 6 -31 28 -68 49
-290 171 -362 219 -362 241 0 13 15 18 98 30 28 5 42 12 42 22 0 8 -20 46 -45
84 -83 128 -99 171 -69 183 17 7 33 4 147 -25 106 -27 110 -25 102 56 -7 66
-1 115 14 115 4 0 50 -36 102 -81 115 -100 153 -129 167 -129 19 0 14 75 -18
292 -17 111 -28 208 -26 215 5 13 20 9 134 -36 l53 -21 55 117 c65 140 92 185
108 181 6 -2 43 -69 83 -148z"/>
<path d="M5140 1335 l0 -395 80 0 80 0 0 395 0 395 -80 0 -80 0 0 -395z"/>
<path d="M5440 1335 l0 -395 80 0 80 0 0 395 0 395 -80 0 -80 0 0 -395z"/>
<path d="M9400 1335 l0 -395 80 0 80 0 0 90 c0 50 3 90 8 90 4 0 48 -40 97
-90 l90 -90 105 0 105 0 -125 125 -125 125 110 110 110 110 -100 0 -100 0 -80
-80 c-44 -44 -83 -80 -87 -80 -5 0 -8 108 -8 240 l0 240 -80 0 -80 0 0 -395z"/>
<path d="M6606 1699 c-108 -26 -218 -115 -273 -220 -25 -49 -28 -63 -28 -159
0 -124 16 -167 96 -255 92 -100 196 -141 338 -132 81 4 193 36 206 57 3 5 -10
41 -30 79 l-35 70 -46 -21 c-93 -41 -227 -18 -290 49 -104 110 -75 281 59 348
65 32 170 35 235 5 l42 -19 36 70 c33 67 34 72 17 85 -52 40 -240 65 -327 43z"/>
<path d="M3037 1693 c-4 -3 -7 -174 -7 -380 l0 -373 85 0 84 0 3 153 3 152
123 3 122 3 0 69 0 69 -122 3 -123 3 0 75 0 75 133 3 132 3 0 74 0 75 -213 0
c-118 0 -217 -3 -220 -7z"/>
<path d="M3595 1678 c-15 -14 -28 -38 -32 -60 -5 -33 -2 -41 30 -73 19 -19 45
-35 56 -35 30 0 78 26 91 49 48 90 -68 185 -145 119z"/>
<path d="M4095 1404 c-16 -8 -38 -23 -47 -31 -17 -15 -18 -14 -18 10 0 27 0
27 -80 27 l-80 0 0 -235 0 -235 80 0 80 0 0 146 0 146 34 34 c36 36 70 43 108
23 37 -20 48 -69 48 -214 l0 -135 80 0 80 0 0 153 c-1 219 -14 261 -100 305
-53 26 -140 30 -185 6z"/>
<path d="M4612 1410 c-46 -19 -92 -63 -117 -113 -32 -65 -35 -170 -6 -232 38
-82 120 -135 208 -135 48 0 124 28 137 49 12 19 26 12 26 -14 0 -24 2 -25 75
-25 l75 0 0 235 0 235 -80 0 c-73 0 -80 -2 -80 -19 0 -19 -2 -19 -42 4 -34 20
-57 25 -108 24 -36 0 -75 -4 -88 -9z m184 -135 c34 -14 64 -61 64 -101 0 -34
-32 -83 -66 -99 -110 -52 -209 86 -127 178 35 38 75 45 129 22z"/>
<path d="M7152 1410 c-46 -19 -92 -63 -117 -113 -32 -65 -35 -170 -6 -232 38
-82 120 -135 208 -135 48 0 124 28 137 49 12 19 26 12 26 -14 0 -24 2 -25 75
-25 l75 0 0 235 0 235 -80 0 c-73 0 -80 -2 -80 -19 0 -19 -2 -19 -42 4 -34 20
-57 25 -108 24 -36 0 -75 -4 -88 -9z m184 -135 c34 -14 64 -61 64 -101 0 -34
-32 -83 -66 -99 -110 -52 -209 86 -127 178 35 38 75 45 129 22z"/>
<path d="M7896 1395 c-44 -30 -46 -30 -46 -5 0 18 -7 20 -80 20 l-80 0 0 -235
0 -235 80 0 80 0 0 151 0 151 29 29 c20 20 39 29 61 29 22 0 41 -9 61 -29 l29
-29 0 -151 0 -151 80 0 80 0 0 175 c0 158 -2 180 -21 216 -41 82 -194 118
-273 64z"/>
<path d="M9039 1392 c-237 -124 -145 -462 126 -462 54 0 145 26 145 41 0 5
-10 29 -22 54 l-22 45 -51 -6 c-112 -13 -181 82 -125 173 27 45 54 56 120 50
l58 -5 23 49 c13 30 19 53 13 58 -20 18 -80 31 -144 31 -55 0 -78 -5 -121 -28z"/>
<path d="M3570 1175 l0 -235 80 0 80 0 0 235 0 235 -80 0 -80 0 0 -235z"/>
<path d="M5679 1373 c11 -21 60 -110 110 -198 l90 -160 -80 -154 c-43 -85 -79
-156 -79 -158 0 -2 41 -2 91 -1 l92 3 91 175 c50 96 133 255 184 353 l93 177
-93 0 -93 0 -54 -120 c-30 -66 -57 -118 -59 -115 -3 3 -33 56 -67 118 l-62
112 -92 3 -92 3 20 -38z"/>
<path d="M8310 1240 c0 -150 2 -175 20 -210 39 -76 115 -105 258 -98 112 5
166 32 200 98 20 41 22 58 22 212 l0 168 -80 0 -80 0 0 -150 c0 -147 -1 -152
-25 -175 -17 -18 -35 -25 -63 -25 -82 0 -101 45 -102 238 l0 112 -75 0 -75 0
0 -170z"/>
</g>
</svg>
